<svg preserveAspectRatio="none" width="100%" height="100%" overflow="visible" style="display: block;" viewBox="0 0 15 15" fill="none" xmlns="http://www.w3.org/2000/svg">
<path id="Icon" d="M3 9.66667C2.37874 9.66667 2.06812 9.66667 1.82309 9.56517C1.49638 9.42985 1.23682 9.17028 1.10149 8.84358C1 8.59855 1 8.28792 1 7.66667V3.13333C1 2.3866 1 2.01323 1.14532 1.72801C1.27316 1.47713 1.47713 1.27316 1.72801 1.14532C2.01323 1 2.3866 1 3.13333 1H7.66667C8.28792 1 8.59855 1 8.84358 1.10149C9.17028 1.23682 9.42985 1.49638 9.56517 1.82309C9.66667 2.06812 9.66667 2.37874 9.66667 3M7.8 14.3333H12.2C12.9467 14.3333 13.3201 14.3333 13.6053 14.188C13.8562 14.0602 14.0602 13.8562 14.188 13.6053C14.3333 13.3201 14.3333 12.9467 14.3333 12.2V7.8C14.3333 7.05326 14.3333 6.6799 14.188 6.39468C14.0602 6.1438 13.8562 5.93982 13.6053 5.81199C13.3201 5.66667 12.9467 5.66667 12.2 5.66667H7.8C7.05326 5.66667 6.6799 5.66667 6.39468 5.81199C6.1438 5.93982 5.93982 6.1438 5.81199 6.39468C5.66667 6.6799 5.66667 7.05326 5.66667 7.8V12.2C5.66667 12.9467 5.66667 13.3201 5.81199 13.6053C5.93982 13.8562 6.1438 14.0602 6.39468 14.188C6.6799 14.3333 7.05326 14.3333 7.8 14.3333Z" stroke="var(--stroke-0, #A2A2A2)" stroke-width="1.33333" stroke-linecap="round" stroke-linejoin="round"/>
</svg>
