<svg preserveAspectRatio="none" width="100%" height="100%" overflow="visible" style="display: block;" viewBox="0 0 13 14" fill="none" xmlns="http://www.w3.org/2000/svg">
<path id="Icon" d="M11.6667 13C11.6667 12.0696 11.6667 11.6044 11.5518 11.2259C11.2933 10.3736 10.6264 9.70669 9.7741 9.44816C9.39556 9.33333 8.93038 9.33333 8 9.33333H4.66667C3.73629 9.33333 3.2711 9.33333 2.89257 9.44816C2.0403 9.70669 1.37336 10.3736 1.11483 11.2259C1 11.6044 1 12.0696 1 13M9.33333 4C9.33333 5.65685 7.99019 7 6.33333 7C4.67648 7 3.33333 5.65685 3.33333 4C3.33333 2.34315 4.67648 1 6.33333 1C7.99019 1 9.33333 2.34315 9.33333 4Z" stroke="var(--stroke-0, white)" stroke-width="1.33333" stroke-linecap="round" stroke-linejoin="round"/>
</svg>
