<svg preserveAspectRatio="none" width="100%" height="100%" overflow="visible" style="display: block;" viewBox="0 0 15 15" fill="none" xmlns="http://www.w3.org/2000/svg">
<path id="Icon" d="M13.8069 10.26C13.3828 11.263 12.7195 12.1468 11.8749 12.8342C11.0302 13.5216 10.0301 13.9916 8.96189 14.2032C7.89367 14.4148 6.78988 14.3614 5.74703 14.0479C4.70418 13.7343 3.75402 13.17 2.97962 12.4044C2.20521 11.6388 1.63014 10.6952 1.30469 9.65597C0.979239 8.61676 0.91331 7.51366 1.11267 6.44309C1.31202 5.37252 1.7706 4.36709 2.4483 3.51469C3.126 2.66229 4.00219 1.98888 5.00027 1.55333M14.3336 7.66667C14.3336 6.79119 14.1612 5.92428 13.8261 5.11544C13.4911 4.30661 13 3.57168 12.381 2.95262C11.7619 2.33356 11.027 1.8425 10.2182 1.50747C9.40932 1.17244 8.54241 1 7.66694 1V7.66667H14.3336Z" stroke="var(--stroke-0, #A2A2A2)" stroke-width="1.33333" stroke-linecap="round" stroke-linejoin="round"/>
</svg>
