<svg preserveAspectRatio="none" width="100%" height="100%" overflow="visible" style="display: block;" viewBox="0 0 15 15" fill="none" xmlns="http://www.w3.org/2000/svg">
<path id="Icon" d="M13.6213 1L12.2879 2.33333M12.2879 2.33333L14.2879 4.33333L11.9546 6.66667L9.95461 4.66667M12.2879 2.33333L9.95461 4.66667M7.21461 7.40667C7.55884 7.74631 7.83248 8.15069 8.01978 8.59653C8.20708 9.04236 8.30434 9.52084 8.30596 10.0044C8.30758 10.488 8.21353 10.9671 8.02922 11.4142C7.84491 11.8613 7.57398 12.2675 7.23204 12.6094C6.8901 12.9514 6.48389 13.2223 6.03681 13.4066C5.58973 13.5909 5.11061 13.685 4.62703 13.6834C4.14345 13.6817 3.66497 13.5845 3.21914 13.3972C2.7733 13.2099 2.36892 12.9362 2.02928 12.592C1.36136 11.9005 0.991784 10.9743 1.00014 10.0129C1.00849 9.05147 1.39411 8.13183 2.07394 7.452C2.75377 6.77217 3.67342 6.38655 4.63481 6.3782C5.59619 6.36984 6.5224 6.73942 7.21394 7.40733L7.21461 7.40667ZM7.21461 7.40667L9.95461 4.66667" stroke="var(--stroke-0, #A2A2A2)" stroke-width="1.33333" stroke-linecap="round" stroke-linejoin="round"/>
</svg>
