<svg preserveAspectRatio="none" width="100%" height="100%" overflow="visible" style="display: block;" viewBox="0 0 15 11" fill="none" xmlns="http://www.w3.org/2000/svg">
<path id="Icon" d="M14.3333 4.33333H1M7 7H3.66667M1 3.13333L1 8.2C1 8.94674 1 9.3201 1.14532 9.60532C1.27316 9.8562 1.47713 10.0602 1.72801 10.188C2.01323 10.3333 2.3866 10.3333 3.13333 10.3333L12.2 10.3333C12.9467 10.3333 13.3201 10.3333 13.6053 10.188C13.8562 10.0602 14.0602 9.8562 14.188 9.60532C14.3333 9.32011 14.3333 8.94674 14.3333 8.2V3.13333C14.3333 2.3866 14.3333 2.01323 14.188 1.72801C14.0602 1.47713 13.8562 1.27316 13.6053 1.14533C13.3201 1 12.9467 1 12.2 1L3.13333 1C2.3866 1 2.01323 1 1.72801 1.14532C1.47713 1.27316 1.27316 1.47713 1.14532 1.72801C1 2.01323 1 2.3866 1 3.13333Z" stroke="var(--stroke-0, #A2A2A2)" stroke-width="1.33333" stroke-linecap="round" stroke-linejoin="round"/>
</svg>
